<svg width="48" height="49" viewBox="0 0 48 49" fill="none" xmlns="http://www.w3.org/2000/svg">
<path d="M24 0.854492C37.2548 0.854492 48 11.5997 48 24.8545C48 38.1093 37.2548 48.8545 24 48.8545C10.7452 48.8545 0 38.1093 0 24.8545C0 11.5997 10.7452 0.854492 24 0.854492Z" fill="#171749"/>
<path d="M24 0.854492C37.2548 0.854492 48 11.5997 48 24.8545C48 38.1093 37.2548 48.8545 24 48.8545C10.7452 48.8545 0 38.1093 0 24.8545C0 11.5997 10.7452 0.854492 24 0.854492Z" stroke="#E5E7EB"/>
<g clip-path="url(#clip0_245_745)">
<path d="M21.414 28.2696L18.71 30.9966C18.321 31.3886 17.688 31.3916 17.296 31.0026C16.903 30.6136 16.901 29.9806 17.29 29.5886L19.008 27.8556H13C12.447 27.8556 12 27.4076 12 26.8556C12 26.3036 12.447 25.8556 13 25.8556H19.005L17.29 24.1226C16.901 23.7306 16.903 23.0976 17.296 22.7086C17.689 22.3196 18.321 22.3216 18.71 22.7146L21.417 25.4446C21.792 25.8186 22 26.3206 22 26.8556C22 27.3906 21.792 27.8926 21.414 28.2706V28.2696ZM29.5 23.8546C28.672 23.8546 28 24.5266 28 25.3546C28 26.1826 28.672 26.8546 29.5 26.8546C30.328 26.8546 31 26.1826 31 25.3546C31 24.5266 30.328 23.8546 29.5 23.8546ZM36 18.4756V33.8546C36 35.5086 34.654 36.8546 33 36.8546H23C21.346 36.8546 20 35.5086 20 33.8546V32.8546C20 32.3026 20.447 31.8546 21 31.8546C21.553 31.8546 22 32.3026 22 32.8546V33.8546C22 34.4056 22.448 34.8546 23 34.8546H24V16.8556C22.897 16.8556 22 17.7526 22 18.8556V20.8556C22 21.4076 21.553 21.8556 21 21.8556C20.447 21.8556 20 21.4076 20 20.8556V18.8556C20 16.6496 21.794 14.8556 24 14.8556H24.561C24.798 14.4486 25.089 14.0706 25.464 13.7636C26.395 13.0016 27.602 12.6956 28.784 12.9346L31.98 13.5746C34.309 14.0396 36 16.1016 36 18.4766V18.4756ZM34 18.4756C34 17.0506 32.985 15.8136 31.588 15.5346L28.392 14.8946C27.804 14.7756 27.197 14.9276 26.733 15.3096C26.267 15.6916 26.001 16.2546 26.001 16.8566V34.8556H33.001C33.553 34.8556 34.001 34.4066 34.001 33.8556L34 18.4756Z" fill="#FF6701"/>
</g>
<defs>
<clipPath id="clip0_245_745">
<rect width="24" height="24" fill="white" transform="translate(12 12.8545)"/>
</clipPath>
</defs>
</svg>
