<svg width="48" height="49" viewBox="0 0 48 49" fill="none" xmlns="http://www.w3.org/2000/svg">
<path d="M24 0.854492C37.2548 0.854492 48 11.5997 48 24.8545C48 38.1093 37.2548 48.8545 24 48.8545C10.7452 48.8545 0 38.1093 0 24.8545C0 11.5997 10.7452 0.854492 24 0.854492Z" fill="#171749"/>
<path d="M24 0.854492C37.2548 0.854492 48 11.5997 48 24.8545C48 38.1093 37.2548 48.8545 24 48.8545C10.7452 48.8545 0 38.1093 0 24.8545C0 11.5997 10.7452 0.854492 24 0.854492Z" stroke="#E5E7EB"/>
<g clip-path="url(#clip0_245_751)">
<path d="M30 20.8545C32.206 20.8545 34 19.0605 34 16.8545C34 14.6485 32.206 12.8545 30 12.8545C27.794 12.8545 26 14.6485 26 16.8545C26 19.0605 27.794 20.8545 30 20.8545ZM30 14.8545C31.103 14.8545 32 15.7515 32 16.8545C32 17.9575 31.103 18.8545 30 18.8545C28.897 18.8545 28 17.9575 28 16.8545C28 15.7515 28.897 14.8545 30 14.8545ZM20 23.8545C20 26.0605 21.794 27.8545 24 27.8545C26.206 27.8545 28 26.0605 28 23.8545C28 21.6485 26.206 19.8545 24 19.8545C21.794 19.8545 20 21.6485 20 23.8545ZM24 21.8545C25.103 21.8545 26 22.7515 26 23.8545C26 24.9575 25.103 25.8545 24 25.8545C22.897 25.8545 22 24.9575 22 23.8545C22 22.7515 22.897 21.8545 24 21.8545ZM18 20.8545C20.206 20.8545 22 19.0605 22 16.8545C22 14.6485 20.206 12.8545 18 12.8545C15.794 12.8545 14 14.6485 14 16.8545C14 19.0605 15.794 20.8545 18 20.8545ZM18 14.8545C19.103 14.8545 20 15.7515 20 16.8545C20 17.9575 19.103 18.8545 18 18.8545C16.897 18.8545 16 17.9575 16 16.8545C16 15.7515 16.897 14.8545 18 14.8545ZM30 32.3545C30 30.4245 28.43 28.8545 26.5 28.8545H21.5C19.57 28.8545 18 30.4245 18 32.3545V34.8545H12V36.8545H36V34.8545H30V32.3545ZM20 32.3545C20 31.5275 20.673 30.8545 21.5 30.8545H26.5C27.327 30.8545 28 31.5275 28 32.3545V34.8545H20V32.3545ZM36 26.3545V28.8545H34V26.3545C34 25.5275 33.327 24.8545 32.5 24.8545H29.91C29.965 24.5285 30 24.1955 30 23.8545C30 23.5135 29.965 23.1805 29.91 22.8545H32.5C34.43 22.8545 36 24.4245 36 26.3545ZM14 28.8545H12V26.3545C12 24.4245 13.57 22.8545 15.5 22.8545H18.09C18.035 23.1805 18 23.5135 18 23.8545C18 24.1955 18.035 24.5285 18.09 24.8545H15.5C14.673 24.8545 14 25.5275 14 26.3545V28.8545Z" fill="white"/>
</g>
<defs>
<clipPath id="clip0_245_751">
<rect width="24" height="24" fill="white" transform="translate(12 12.8545)"/>
</clipPath>
</defs>
</svg>
