<svg width="48" height="49" viewBox="0 0 48 49" fill="none" xmlns="http://www.w3.org/2000/svg">
<path d="M24 0.854492C37.2548 0.854492 48 11.5997 48 24.8545C48 38.1093 37.2548 48.8545 24 48.8545C10.7452 48.8545 0 38.1093 0 24.8545C0 11.5997 10.7452 0.854492 24 0.854492Z" fill="#171749"/>
<path d="M24 0.854492C37.2548 0.854492 48 11.5997 48 24.8545C48 38.1093 37.2548 48.8545 24 48.8545C10.7452 48.8545 0 38.1093 0 24.8545C0 11.5997 10.7452 0.854492 24 0.854492Z" stroke="#E5E7EB"/>
<g clip-path="url(#clip0_406_220)">
<path d="M22 36.8545H12V34.8545H22V36.8545ZM20 30.8545H12V32.8545H20V30.8545ZM18 26.8545H12V28.8545H18V26.8545ZM24 12.8545C20.8185 12.8579 17.7682 14.1233 15.5185 16.373C13.2688 18.6227 12.0034 21.673 12 24.8545H14C14 22.8767 14.5865 20.9433 15.6853 19.2988C16.7841 17.6543 18.3459 16.3726 20.1732 15.6157C22.0004 14.8588 24.0111 14.6608 25.9509 15.0466C27.8907 15.4325 29.6725 16.3849 31.0711 17.7834C32.4696 19.1819 33.422 20.9638 33.8079 22.9036C34.1937 24.8434 33.9957 26.8541 33.2388 28.6813C32.4819 30.5086 31.2002 32.0704 29.5557 33.1692C27.9112 34.268 25.9778 34.8545 24 34.8545V36.8545C27.1826 36.8545 30.2348 35.5902 32.4853 33.3398C34.7357 31.0893 36 28.0371 36 24.8545C36 21.6719 34.7357 18.6196 32.4853 16.3692C30.2348 14.1188 27.1826 12.8545 24 12.8545ZM23 19.8545V25.2685L26.293 28.5615L27.707 27.1475L25 24.4405V19.8545H23Z" fill="#FF6701"/>
</g>
<defs>
<clipPath id="clip0_406_220">
<rect width="24" height="24" fill="white" transform="translate(12 12.8545)"/>
</clipPath>
</defs>
</svg>
