<svg width="48" height="49" viewBox="0 0 48 49" fill="none" xmlns="http://www.w3.org/2000/svg">
<path d="M24 0.854492C37.2548 0.854492 48 11.5997 48 24.8545C48 38.1093 37.2548 48.8545 24 48.8545C10.7452 48.8545 0 38.1093 0 24.8545C0 11.5997 10.7452 0.854492 24 0.854492Z" fill="#171749"/>
<path d="M24 0.854492C37.2548 0.854492 48 11.5997 48 24.8545C48 38.1093 37.2548 48.8545 24 48.8545C10.7452 48.8545 0 38.1093 0 24.8545C0 11.5997 10.7452 0.854492 24 0.854492Z" stroke="#E5E7EB"/>
<path d="M33.9993 21.8544V27.4404L24.9993 18.4404L18.9993 24.4404L13.4433 18.8844L12.0293 20.2984L18.9993 27.2684L24.9993 21.2684L32.5853 28.8544H26.9993V30.8544H33.9993C35.1023 30.8544 35.9993 29.9574 35.9993 28.8544V21.8544H33.9993Z" fill="#FF6701"/>
</svg>
