<svg width="48" height="49" viewBox="0 0 48 49" fill="none" xmlns="http://www.w3.org/2000/svg">
<path d="M24 0.540771C37.2548 0.540771 48 11.2859 48 24.5408C48 37.7956 37.2548 48.5408 24 48.5408C10.7452 48.5408 0 37.7956 0 24.5408C0 11.2859 10.7452 0.540771 24 0.540771Z" fill="#171749"/>
<path d="M24 0.540771C37.2548 0.540771 48 11.2859 48 24.5408C48 37.7956 37.2548 48.5408 24 48.5408C10.7452 48.5408 0 37.7956 0 24.5408C0 11.2859 10.7452 0.540771 24 0.540771Z" stroke="#E5E7EB"/>
<g clip-path="url(#clip0_406_115)">
<path d="M35.3639 19.4197C35.2449 19.4667 35.1219 19.4877 35.0009 19.4877C34.6009 19.4877 34.2229 19.2467 34.0689 18.8507L32.9549 15.9957C29.2979 23.7477 22.6809 28.9617 13.2609 31.5067C13.1739 31.5297 13.0859 31.5407 12.9999 31.5407C12.5589 31.5407 12.1549 31.2477 12.0349 30.8017C11.8909 30.2687 12.2059 29.7197 12.7399 29.5747C21.5989 27.1817 27.7969 22.2957 31.1899 15.0427L28.1179 16.2407C27.6009 16.4427 27.0229 16.1857 26.8229 15.6727C26.6219 15.1577 26.8769 14.5787 27.3909 14.3777L31.7919 12.6607C32.7489 12.2847 33.8399 12.7627 34.2159 13.7227L35.9329 18.1237C36.1339 18.6387 35.8789 19.2177 35.3649 19.4187L35.3639 19.4197ZM34.0009 20.5407C33.4489 20.5407 33.0009 20.9877 33.0009 21.5407V35.5407C33.0009 36.0937 33.4489 36.5407 34.0009 36.5407C34.5529 36.5407 35.0009 36.0937 35.0009 35.5407V21.5407C35.0009 20.9877 34.5529 20.5407 34.0009 20.5407ZM29.0009 25.5407C28.4489 25.5407 28.0009 25.9877 28.0009 26.5407V35.5407C28.0009 36.0937 28.4489 36.5407 29.0009 36.5407C29.5529 36.5407 30.0009 36.0937 30.0009 35.5407V26.5407C30.0009 25.9877 29.5529 25.5407 29.0009 25.5407ZM24.0009 29.5407C23.4489 29.5407 23.0009 29.9877 23.0009 30.5407V35.5407C23.0009 36.0937 23.4489 36.5407 24.0009 36.5407C24.5529 36.5407 25.0009 36.0937 25.0009 35.5407V30.5407C25.0009 29.9877 24.5529 29.5407 24.0009 29.5407ZM19.0009 31.5407C18.4489 31.5407 18.0009 31.9877 18.0009 32.5407V35.5407C18.0009 36.0937 18.4489 36.5407 19.0009 36.5407C19.5529 36.5407 20.0009 36.0937 20.0009 35.5407V32.5407C20.0009 31.9877 19.5529 31.5407 19.0009 31.5407ZM14.0009 33.5407C13.4489 33.5407 13.0009 33.9877 13.0009 34.5407V35.5407C13.0009 36.0937 13.4489 36.5407 14.0009 36.5407C14.5529 36.5407 15.0009 36.0937 15.0009 35.5407V34.5407C15.0009 33.9877 14.5529 33.5407 14.0009 33.5407ZM12.0009 18.5407C12.0009 15.2317 14.6919 12.5407 18.0009 12.5407C21.3099 12.5407 24.0009 15.2317 24.0009 18.5407C24.0009 21.8497 21.3099 24.5407 18.0009 24.5407C14.6919 24.5407 12.0009 21.8497 12.0009 18.5407ZM16.0009 16.5407C16.0009 17.6457 16.8959 18.5407 18.0009 18.5407C19.1059 18.5407 20.0009 17.6457 20.0009 16.5407C20.0009 15.4357 19.1059 14.5407 18.0009 14.5407C16.8959 14.5407 16.0009 15.4357 16.0009 16.5407ZM15.0349 21.2007C15.7679 22.0167 16.8189 22.5407 18.0009 22.5407C19.1829 22.5407 20.2339 22.0167 20.9669 21.2007C20.3489 20.2077 19.2569 19.5407 18.0009 19.5407C16.7449 19.5407 15.6529 20.2077 15.0349 21.2007Z" fill="#FF6701"/>
</g>
<defs>
<clipPath id="clip0_406_115">
<rect width="24" height="24" fill="white" transform="translate(12 12.5408)"/>
</clipPath>
</defs>
</svg>
