<svg width="48" height="48" viewBox="0 0 48 48" fill="none" xmlns="http://www.w3.org/2000/svg">
<path d="M24 0C37.2548 0 48 10.7452 48 24C48 37.2548 37.2548 48 24 48C10.7452 48 0 37.2548 0 24C0 10.7452 10.7452 0 24 0Z" fill="#171749"/>
<path d="M24 0C37.2548 0 48 10.7452 48 24C48 37.2548 37.2548 48 24 48C10.7452 48 0 37.2548 0 24C0 10.7452 10.7452 0 24 0Z" stroke="#E5E7EB"/>
<g clip-path="url(#clip0_245_341)">
<path d="M36 25.0001C36.0036 26.5736 35.6954 28.1323 35.0933 29.586C34.4912 31.0398 33.6071 32.3599 32.492 33.4701C31.9532 34.0122 31.2297 34.3313 30.4661 34.3635C29.7024 34.3958 28.9546 34.1389 28.372 33.6441L27.346 32.7571C27.2466 32.6712 27.1651 32.5666 27.1061 32.4492C27.0471 32.3318 27.0118 32.204 27.0023 32.0729C26.983 31.8083 27.0695 31.5469 27.243 31.3461C27.3289 31.2467 27.4335 31.1652 27.5509 31.1062C27.6683 31.0472 27.7961 31.0119 27.9272 31.0024C28.1918 30.9831 28.4532 31.0696 28.654 31.2431L29.681 32.1311C29.8788 32.2998 30.1339 32.3861 30.3935 32.3722C30.6531 32.3582 30.8974 32.2451 31.076 32.0561C32.0296 31.0908 32.7776 29.9423 33.2751 28.6799C33.7726 27.4175 34.0091 26.0674 33.9704 24.7111C33.9317 23.3548 33.6186 22.0204 33.05 20.7884C32.4814 19.5565 31.669 18.4525 30.662 17.5431C29.611 16.5948 28.3689 15.8828 27.0193 15.4554C25.6698 15.0279 24.2443 14.8948 22.839 15.0651C20.9688 15.2818 19.1978 16.0225 17.7302 17.2019C16.2626 18.3812 15.1581 19.9512 14.5439 21.7309C13.9297 23.5107 13.8308 25.4277 14.2586 27.2612C14.6864 29.0947 15.6235 30.77 16.962 32.0941C17.1419 32.27 17.3815 32.3716 17.6331 32.3786C17.8846 32.3857 18.1295 32.2976 18.319 32.1321L19.346 31.2431C19.5468 31.0696 19.8082 30.9831 20.0728 31.0024C20.3374 31.0217 20.5835 31.1453 20.757 31.3461C20.9304 31.5469 21.017 31.8083 20.9977 32.0729C20.9784 32.3375 20.8548 32.5836 20.654 32.7571L19.628 33.6451C19.056 34.1369 18.3204 34.3964 17.5664 34.3725C16.8124 34.3486 16.0948 34.0431 15.555 33.5161C14.151 32.1253 13.1122 30.4094 12.5309 28.5206C11.9496 26.6318 11.8438 24.6287 12.2228 22.6892C12.6018 20.7496 13.454 18.9337 14.7036 17.4028C15.9532 15.8718 17.5616 14.6731 19.3859 13.9133C21.2102 13.1534 23.1939 12.8558 25.1608 13.047C27.1278 13.2382 29.0171 13.9122 30.6609 15.0091C32.3047 16.106 33.6522 17.592 34.5836 19.3349C35.515 21.0779 36.0015 23.0239 36 25.0001ZM29.707 20.7071C29.8892 20.5185 29.99 20.2659 29.9877 20.0037C29.9854 19.7415 29.8802 19.4907 29.6948 19.3053C29.5094 19.1199 29.2586 19.0147 28.9964 19.0124C28.7342 19.0101 28.4816 19.1109 28.293 19.2931L24.518 23.0681C24.0927 22.9541 23.6417 22.9836 23.2349 23.1521C22.8282 23.3206 22.4883 23.6185 22.2682 23.9998C22.048 24.3811 21.9598 24.8244 22.0173 25.2609C22.0748 25.6974 22.2746 26.1028 22.586 26.4141C22.8973 26.7254 23.3027 26.9253 23.7392 26.9828C24.1757 27.0403 24.619 26.9521 25.0003 26.7319C25.3816 26.5117 25.6795 26.1719 25.848 25.7651C26.0165 25.3584 26.046 24.9074 25.932 24.4821L29.707 20.7071Z" fill="white"/>
</g>
<defs>
<clipPath id="clip0_245_341">
<rect width="24" height="24" fill="white" transform="translate(12 12)"/>
</clipPath>
</defs>
</svg>
