<svg width="48" height="48" viewBox="0 0 48 48" fill="none" xmlns="http://www.w3.org/2000/svg">
<path d="M24 0C37.2548 0 48 10.7452 48 24C48 37.2548 37.2548 48 24 48C10.7452 48 0 37.2548 0 24C0 10.7452 10.7452 0 24 0Z" fill="#171749"/>
<path d="M24 0C37.2548 0 48 10.7452 48 24C48 37.2548 37.2548 48 24 48C10.7452 48 0 37.2548 0 24C0 10.7452 10.7452 0 24 0Z" stroke="#E5E7EB"/>
<g clip-path="url(#clip0_245_352)">
<path d="M31.0254 24V30C31.0254 30.552 30.5774 31 30.0254 31C29.4734 31 29.0254 30.552 29.0254 30V24C29.0254 23.448 29.4734 23 30.0254 23C30.5774 23 31.0254 23.448 31.0254 24ZM23.6054 18.717L26.6764 29.746C26.8514 30.376 26.3784 31 25.7234 31C25.2804 31 24.8924 30.706 24.7714 30.28L24.1284 28H18.9224L18.2794 30.28C18.1594 30.706 17.7704 31 17.3274 31C16.6734 31 16.1994 30.376 16.3744 29.746L19.4654 18.638C19.6064 18.03 20.0064 17.518 20.5634 17.233C21.1314 16.941 21.7834 16.923 22.4024 17.183C22.9894 17.429 23.4394 18 23.6064 18.718L23.6054 18.717ZM23.5644 26L21.6354 19.165C21.6064 19.051 21.4444 19.051 21.4164 19.165L19.4874 26H23.5644ZM35.0264 22C34.4744 22 34.0264 22.448 34.0264 23V31C34.0264 32.654 32.6804 34 31.0264 34H17.0254C15.3714 34 14.0254 32.654 14.0254 31V17C14.0254 15.346 15.3714 14 17.0254 14H25.0254C25.5774 14 26.0254 13.552 26.0254 13C26.0254 12.448 25.5774 12 25.0254 12H17.0254C14.2684 12 12.0254 14.243 12.0254 17V31C12.0254 33.757 14.2684 36 17.0254 36H31.0254C33.7824 36 36.0254 33.757 36.0254 31V23C36.0254 22.448 35.5774 22 35.0254 22H35.0264ZM28.1764 17.18L30.0444 17.967L30.7894 19.832C30.9504 20.236 31.3414 20.5 31.7764 20.5C32.2114 20.5 32.6014 20.235 32.7634 19.832L33.5044 17.978L35.3584 17.237C35.7624 17.076 36.0264 16.685 36.0264 16.25C36.0264 15.815 35.7614 15.425 35.3584 15.263L33.5044 14.522L32.7634 12.668C32.6004 12.265 32.2094 12 31.7754 12C31.3414 12 30.9504 12.265 30.7884 12.668L30.0514 14.511L28.2114 15.208C27.8054 15.362 27.5334 15.748 27.5254 16.182C27.5174 16.617 27.7754 17.012 28.1754 17.181L28.1764 17.18Z" fill="#FF6701"/>
</g>
<defs>
<clipPath id="clip0_245_352">
<rect width="24" height="24" fill="white" transform="translate(12 12)"/>
</clipPath>
</defs>
</svg>
