<svg width="48" height="49" viewBox="0 0 48 49" fill="none" xmlns="http://www.w3.org/2000/svg">
<path d="M24 0.540771C37.2548 0.540771 48 11.2859 48 24.5408C48 37.7956 37.2548 48.5408 24 48.5408C10.7452 48.5408 0 37.7956 0 24.5408C0 11.2859 10.7452 0.540771 24 0.540771Z" fill="#171749"/>
<path d="M24 0.540771C37.2548 0.540771 48 11.2859 48 24.5408C48 37.7956 37.2548 48.5408 24 48.5408C10.7452 48.5408 0 37.7956 0 24.5408C0 11.2859 10.7452 0.540771 24 0.540771Z" stroke="#E5E7EB"/>
<g clip-path="url(#clip0_228_21)">
<path d="M35 23.5408C35.552 23.5408 36 23.0938 36 22.5408C36 21.9878 35.552 21.5408 35 21.5408H34V19.5408H35C35.552 19.5408 36 19.0938 36 18.5408C36 17.9878 35.552 17.5408 35 17.5408H33.582C33.077 16.3898 32.151 15.4638 31 14.9588V13.5408C31 12.9878 30.552 12.5408 30 12.5408C29.448 12.5408 29 12.9878 29 13.5408V14.5408H27V13.5408C27 12.9878 26.552 12.5408 26 12.5408C25.448 12.5408 25 12.9878 25 13.5408V14.5408H23V13.5408C23 12.9878 22.552 12.5408 22 12.5408C21.448 12.5408 21 12.9878 21 13.5408V14.5408H19V13.5408C19 12.9878 18.552 12.5408 18 12.5408C17.448 12.5408 17 12.9878 17 13.5408V14.9588C15.849 15.4638 14.923 16.3898 14.418 17.5408H13C12.448 17.5408 12 17.9878 12 18.5408C12 19.0938 12.448 19.5408 13 19.5408H14V21.5408H13C12.448 21.5408 12 21.9878 12 22.5408C12 23.0938 12.448 23.5408 13 23.5408H14V25.5408H13C12.448 25.5408 12 25.9878 12 26.5408C12 27.0938 12.448 27.5408 13 27.5408H14V29.5408H13C12.448 29.5408 12 29.9878 12 30.5408C12 31.0938 12.448 31.5408 13 31.5408H14.418C14.923 32.6918 15.849 33.6178 17 34.1228V35.5408C17 36.0938 17.448 36.5408 18 36.5408C18.552 36.5408 19 36.0938 19 35.5408V34.5408H21V35.5408C21 36.0938 21.448 36.5408 22 36.5408C22.552 36.5408 23 36.0938 23 35.5408V34.5408H25V35.5408C25 36.0938 25.448 36.5408 26 36.5408C26.552 36.5408 27 36.0938 27 35.5408V34.5408H29V35.5408C29 36.0938 29.448 36.5408 30 36.5408C30.552 36.5408 31 36.0938 31 35.5408V34.1228C32.151 33.6178 33.077 32.6918 33.582 31.5408H35C35.552 31.5408 36 31.0938 36 30.5408C36 29.9878 35.552 29.5408 35 29.5408H34V27.5408H35C35.552 27.5408 36 27.0938 36 26.5408C36 25.9878 35.552 25.5408 35 25.5408H34V23.5408H35ZM29 32.5408H19C17.346 32.5408 16 31.1948 16 29.5408V19.5408C16 17.8868 17.346 16.5408 19 16.5408H29C30.654 16.5408 32 17.8868 32 19.5408V29.5408C32 31.1948 30.654 32.5408 29 32.5408ZM29 19.5408V29.5408C29 30.0938 28.552 30.5408 28 30.5408C27.448 30.5408 27 30.0938 27 29.5408V19.5408C27 18.9878 27.448 18.5408 28 18.5408C28.552 18.5408 29 18.9878 29 19.5408ZM23.565 19.8428C23.383 19.0658 22.754 18.5438 22 18.5438C21.246 18.5438 20.617 19.0648 20.439 19.8238L18.03 29.2948C17.894 29.8298 18.218 30.3738 18.753 30.5098C19.293 30.6518 19.833 30.3228 19.969 29.7868L20.286 28.5408H23.714L24.031 29.7868C24.146 30.2398 24.553 30.5408 25 30.5408C25.082 30.5408 25.164 30.5308 25.247 30.5098C25.782 30.3738 26.106 29.8298 25.97 29.2948L23.566 19.8428H23.565ZM20.795 26.5408L22 21.8018L23.205 26.5408H20.794H20.795Z" fill="#FF6701"/>
</g>
<defs>
<clipPath id="clip0_228_21">
<rect width="24" height="24" fill="white" transform="translate(12 12.5408)"/>
</clipPath>
</defs>
</svg>
