<svg width="48" height="49" viewBox="0 0 48 49" fill="none" xmlns="http://www.w3.org/2000/svg">
<path d="M24 0.540771C37.2548 0.540771 48 11.2859 48 24.5408C48 37.7956 37.2548 48.5408 24 48.5408C10.7452 48.5408 0 37.7956 0 24.5408C0 11.2859 10.7452 0.540771 24 0.540771Z" fill="#171749"/>
<path d="M24 0.540771C37.2548 0.540771 48 11.2859 48 24.5408C48 37.7956 37.2548 48.5408 24 48.5408C10.7452 48.5408 0 37.7956 0 24.5408C0 11.2859 10.7452 0.540771 24 0.540771Z" stroke="#E5E7EB"/>
<g clip-path="url(#clip0_228_31)">
<path d="M34.696 31.6748L33.722 31.1128C33.888 30.6158 34 30.0938 34 29.5408C34 28.9878 33.889 28.4658 33.722 27.9688L34.696 27.4068C35.174 27.1308 35.338 26.5188 35.062 26.0408C34.786 25.5628 34.175 25.3978 33.696 25.6748L32.723 26.2368C32.018 25.4428 31.079 24.8618 30 24.6428V23.5418C30 22.9898 29.552 22.5418 29 22.5418C28.448 22.5418 28 22.9898 28 23.5418V24.6428C26.921 24.8628 25.982 25.4438 25.277 26.2368L24.304 25.6748C23.824 25.3978 23.214 25.5638 22.938 26.0408C22.662 26.5198 22.826 27.1308 23.304 27.4068L24.278 27.9688C24.112 28.4658 24 28.9878 24 29.5408C24 30.0938 24.111 30.6158 24.278 31.1128L23.304 31.6748C22.826 31.9508 22.662 32.5628 22.938 33.0408C23.216 33.5228 23.834 33.6798 24.304 33.4068L25.277 32.8448C25.982 33.6388 26.921 34.2198 28 34.4388V35.5398C28 36.0928 28.448 36.5398 29 36.5398C29.552 36.5398 30 36.0928 30 35.5398V34.4388C31.079 34.2188 32.018 33.6378 32.723 32.8448L33.696 33.4068C34.166 33.6798 34.784 33.5228 35.062 33.0408C35.338 32.5618 35.174 31.9508 34.696 31.6748ZM29 32.5408C27.346 32.5408 26 31.1948 26 29.5408C26 27.8868 27.346 26.5408 29 26.5408C30.654 26.5408 32 27.8868 32 29.5408C32 31.1948 30.654 32.5408 29 32.5408ZM21.914 34.4798C21.457 34.5188 20.984 34.5408 20.5 34.5408C16.294 34.5408 14 33.0778 14 32.3268V29.9988C15.426 30.8848 17.515 31.4568 19.969 31.5328H20C20.538 31.5328 20.982 31.1048 20.999 30.5628C21.016 30.0108 20.582 29.5498 20.03 29.5328C16.294 29.4188 13.999 28.0048 13.999 27.0408V24.9988C15.425 25.8848 17.514 26.4568 19.968 26.5328H19.999C20.537 26.5328 20.981 26.1048 20.998 25.5628C21.015 25.0108 20.581 24.5498 20.029 24.5328C16.293 24.4178 13.998 23.0038 13.998 22.0398V19.9988C15.533 20.9528 17.833 21.5398 20.498 21.5398C23.163 21.5398 25.463 20.9518 26.998 19.9988V20.0398C26.998 20.5918 27.446 21.0398 27.998 21.0398C28.55 21.0398 28.998 20.5918 28.998 20.0398V17.0398C29 14.4758 25.346 12.5408 20.5 12.5408C15.654 12.5408 12 14.4758 12 17.0408V32.3268C12 35.0938 16.276 36.5408 20.5 36.5408C21.03 36.5408 21.564 36.5188 22.086 36.4728C22.636 36.4248 23.044 35.9408 22.996 35.3908C22.948 34.8398 22.466 34.4208 21.913 34.4808L21.914 34.4798ZM20.5 14.5408C24.468 14.5408 27 16.0208 27 17.0408C27 18.0608 24.468 19.5408 20.5 19.5408C16.532 19.5408 14 18.0608 14 17.0408C14 16.0208 16.532 14.5408 20.5 14.5408Z" fill="#FF6701"/>
</g>
<defs>
<clipPath id="clip0_228_31">
<rect width="24" height="24" fill="white" transform="translate(12 12.5408)"/>
</clipPath>
</defs>
</svg>
