<svg width="48" height="48" viewBox="0 0 48 48" fill="none" xmlns="http://www.w3.org/2000/svg">
<path d="M24 0C37.2548 0 48 10.7452 48 24C48 37.2548 37.2548 48 24 48C10.7452 48 0 37.2548 0 24C0 10.7452 10.7452 0 24 0Z" fill="#171749"/>
<path d="M24 0C37.2548 0 48 10.7452 48 24C48 37.2548 37.2548 48 24 48C10.7452 48 0 37.2548 0 24C0 10.7452 10.7452 0 24 0Z" stroke="#E5E7EB"/>
<g clip-path="url(#clip0_245_347)">
<path d="M24 12C26.9541 12.0089 29.8017 13.1045 32 15.078V12H34V17.143C33.9995 17.6353 33.8037 18.1074 33.4555 18.4555C33.1074 18.8037 32.6353 18.9995 32.143 19H27V17H31.121C29.4957 15.3536 27.3492 14.3226 25.0481 14.0832C22.7471 13.8439 20.4343 14.411 18.5049 15.6876C16.5756 16.9643 15.1495 18.8713 14.4702 21.0828C13.7909 23.2943 13.9006 25.6731 14.7805 27.8126C15.6605 29.9522 17.2562 31.7199 19.2948 32.8135C21.3335 33.9072 23.6887 34.259 25.9579 33.8088C28.2272 33.3586 30.2697 32.1344 31.7365 30.3454C33.2033 28.5564 34.0034 26.3135 34 24H36C36 26.3734 35.2962 28.6935 33.9776 30.6668C32.6591 32.6402 30.7849 34.1783 28.5922 35.0866C26.3995 35.9948 23.9867 36.2324 21.6589 35.7694C19.3312 35.3064 17.193 34.1635 15.5147 32.4853C13.8365 30.8071 12.6936 28.6689 12.2306 26.3411C11.7676 24.0133 12.0052 21.6005 12.9135 19.4078C13.8217 17.2151 15.3598 15.3409 17.3332 14.0224C19.3066 12.7038 21.6266 12 24 12Z" fill="white"/>
<path d="M23 19V24.414L26.293 27.707L27.707 26.293L25 23.586V19H23Z" fill="white"/>
</g>
<defs>
<clipPath id="clip0_245_347">
<rect width="24" height="24" fill="white" transform="translate(12 12)"/>
</clipPath>
</defs>
</svg>
