<svg width="48" height="49" viewBox="0 0 48 49" fill="none" xmlns="http://www.w3.org/2000/svg">
<path d="M24 0.540771C37.2548 0.540771 48 11.2859 48 24.5408C48 37.7956 37.2548 48.5408 24 48.5408C10.7452 48.5408 0 37.7956 0 24.5408C0 11.2859 10.7452 0.540771 24 0.540771Z" fill="#171749"/>
<path d="M24 0.540771C37.2548 0.540771 48 11.2859 48 24.5408C48 37.7956 37.2548 48.5408 24 48.5408C10.7452 48.5408 0 37.7956 0 24.5408C0 11.2859 10.7452 0.540771 24 0.540771Z" stroke="#E5E7EB"/>
<g clip-path="url(#clip0_228_15)">
<path d="M29.994 14.8267C28.085 13.1207 25.514 12.3107 22.956 12.5997C18.905 13.0577 15.591 16.3227 15.075 20.3627C14.701 23.2947 15.719 26.1227 17.867 28.1227C19.243 29.4017 20 31.0237 20 32.6897V33.0407C20 34.9707 21.57 36.5407 23.5 36.5407H24.5C26.43 36.5407 28 34.9707 28 33.0407V32.8557C28 31.0397 28.704 29.3797 29.933 28.3037C31.882 26.5947 33 24.1297 33 21.5407C33 18.9807 31.904 16.5337 29.994 14.8267ZM26 33.0407C26 33.8677 25.327 34.5407 24.5 34.5407H23.5C22.673 34.5407 22 33.8677 22 33.0407C22 33.0407 21.993 32.5907 21.992 32.5407H26.016C26.012 32.6457 26 33.0407 26 33.0407ZM28.614 26.7997C27.509 27.7677 26.726 29.0727 26.32 30.5407H21.678C21.257 29.1107 20.43 27.7757 19.23 26.6597C17.559 25.1037 16.767 22.9017 17.059 20.6167C17.459 17.4797 20.034 14.9437 23.18 14.5877C23.458 14.5567 23.734 14.5407 24.008 14.5407C25.733 14.5407 27.361 15.1577 28.66 16.3187C30.146 17.6467 30.999 19.5497 30.999 21.5407C30.999 23.5537 30.131 25.4707 28.614 26.7997ZM28.332 19.0447C28.058 18.5667 27.445 18.4017 26.967 18.6777L26.399 19.0047C26.008 18.6347 25.529 18.3627 25 18.2037V17.5407C25 16.9887 24.553 16.5407 24 16.5407C23.447 16.5407 23 16.9887 23 17.5407V18.2037C22.471 18.3627 21.993 18.6347 21.601 19.0047L21.033 18.6777C20.554 18.4017 19.942 18.5667 19.668 19.0447C19.392 19.5237 19.557 20.1347 20.035 20.4107L20.602 20.7377C20.541 20.9967 20.5 21.2637 20.5 21.5417C20.5 21.8197 20.541 22.0857 20.602 22.3447L20.035 22.6707C19.556 22.9467 19.391 23.5577 19.668 24.0367C19.853 24.3577 20.189 24.5377 20.535 24.5377C20.704 24.5377 20.876 24.4947 21.033 24.4047L21.602 24.0777C21.993 24.4477 22.471 24.7197 23 24.8787V25.5417C23 26.0937 23.447 26.5417 24 26.5417C24.553 26.5417 25 26.0937 25 25.5417V24.8787C25.529 24.7197 26.007 24.4477 26.398 24.0777L26.967 24.4047C27.124 24.4947 27.296 24.5377 27.465 24.5377C27.811 24.5377 28.148 24.3577 28.332 24.0367C28.608 23.5577 28.443 22.9467 27.965 22.6707L27.398 22.3447C27.459 22.0857 27.5 21.8187 27.5 21.5417C27.5 21.2647 27.459 20.9977 27.398 20.7377L27.965 20.4107C28.444 20.1357 28.609 19.5237 28.332 19.0447ZM24 23.0407C23.173 23.0407 22.5 22.3677 22.5 21.5407C22.5 20.7137 23.173 20.0407 24 20.0407C24.827 20.0407 25.5 20.7137 25.5 21.5407C25.5 22.3677 24.827 23.0407 24 23.0407Z" fill="#FF6701"/>
</g>
<defs>
<clipPath id="clip0_228_15">
<rect width="24" height="24" fill="white" transform="translate(12 12.5408)"/>
</clipPath>
</defs>
</svg>
