<svg width="48" height="48" viewBox="0 0 48 48" fill="none" xmlns="http://www.w3.org/2000/svg">
<path d="M24 0C37.2548 0 48 10.7452 48 24C48 37.2548 37.2548 48 24 48C10.7452 48 0 37.2548 0 24C0 10.7452 10.7452 0 24 0Z" fill="#171749"/>
<path d="M24 0C37.2548 0 48 10.7452 48 24C48 37.2548 37.2548 48 24 48C10.7452 48 0 37.2548 0 24C0 10.7452 10.7452 0 24 0Z" stroke="#E5E7EB"/>
<g clip-path="url(#clip0_200_1253)">
<path d="M27.999 27.5C27.811 27.5 27.62 27.447 27.451 27.336L23.451 24.708C23.17 24.522 23 24.209 23 23.872V19C23 18.447 23.447 18 24 18C24.553 18 25 18.447 25 19V23.333L28.549 25.664C29.011 25.968 29.139 26.588 28.836 27.049C28.644 27.342 28.324 27.5 27.999 27.5ZM24.714 33.975C24.478 33.992 24.24 34 24 34C18.486 34 14 29.514 14 24C14 18.486 18.486 14 24 14C27.151 14 30.112 15.512 31.988 18H29C28.447 18 28 18.447 28 19C28 19.553 28.447 20 29 20H33C34.103 20 35 19.103 35 18V14C35 13.447 34.553 13 34 13C33.447 13 33 13.447 33 14V16.104C30.743 13.543 27.473 12 24 12C17.383 12 12 17.383 12 24C12 30.617 17.383 36 24 36C24.288 36 24.573 35.989 24.856 35.969C25.407 35.93 25.822 35.451 25.782 34.901C25.743 34.351 25.27 33.926 24.714 33.975ZM35 23C34.447 23 34 23.447 34 24C34 24.455 33.969 24.913 33.908 25.36C33.834 25.908 34.218 26.412 34.764 26.486C34.81 26.492 34.855 26.495 34.9 26.495C35.393 26.495 35.822 26.131 35.89 25.63C35.962 25.094 35.999 24.545 35.999 24C35.999 23.447 35.553 23 35 23ZM34.137 28.396C33.653 28.128 33.044 28.308 32.78 28.792C32.563 29.188 32.316 29.574 32.045 29.94C31.717 30.384 31.812 31.01 32.255 31.339C32.435 31.471 32.643 31.534 32.849 31.534C33.156 31.534 33.458 31.393 33.655 31.129C33.978 30.69 34.275 30.227 34.535 29.752C34.801 29.268 34.623 28.66 34.139 28.395L34.137 28.396ZM29.406 32.416C29.023 32.662 28.623 32.883 28.215 33.072C27.714 33.305 27.496 33.899 27.729 34.4C27.899 34.765 28.259 34.979 28.637 34.979C28.778 34.979 28.921 34.95 29.057 34.886C29.548 34.657 30.03 34.393 30.489 34.097C30.954 33.798 31.088 33.18 30.789 32.715C30.49 32.252 29.871 32.118 29.407 32.415L29.406 32.416Z" fill="#FF6701"/>
</g>
<defs>
<clipPath id="clip0_200_1253">
<rect width="24" height="24" fill="white" transform="translate(12 12)"/>
</clipPath>
</defs>
</svg>
