<svg width="48" height="49" viewBox="0 0 48 49" fill="none" xmlns="http://www.w3.org/2000/svg">
<path d="M24 0.540771C37.2548 0.540771 48 11.2859 48 24.5408C48 37.7956 37.2548 48.5408 24 48.5408C10.7452 48.5408 0 37.7956 0 24.5408C0 11.2859 10.7452 0.540771 24 0.540771Z" fill="#171749"/>
<path d="M24 0.540771C37.2548 0.540771 48 11.2859 48 24.5408C48 37.7956 37.2548 48.5408 24 48.5408C10.7452 48.5408 0 37.7956 0 24.5408C0 11.2859 10.7452 0.540771 24 0.540771Z" stroke="#E5E7EB"/>
<g clip-path="url(#clip0_245_122)">
<path d="M22 36.5408H12V34.5408H22V36.5408ZM20 30.5408H12V32.5408H20V30.5408ZM18 26.5408H12V28.5408H18V26.5408ZM24 12.5408C20.8185 12.5442 17.7682 13.8096 15.5185 16.0593C13.2688 18.309 12.0034 21.3592 12 24.5408H14C14 22.563 14.5865 20.6296 15.6853 18.9851C16.7841 17.3406 18.3459 16.0589 20.1732 15.302C22.0004 14.5451 24.0111 14.3471 25.9509 14.7329C27.8907 15.1188 29.6725 16.0712 31.0711 17.4697C32.4696 18.8682 33.422 20.6501 33.8079 22.5899C34.1937 24.5297 33.9957 26.5403 33.2388 28.3676C32.4819 30.1949 31.2002 31.7567 29.5557 32.8555C27.9112 33.9543 25.9778 34.5408 24 34.5408V36.5408C27.1826 36.5408 30.2348 35.2765 32.4853 33.0261C34.7357 30.7756 36 27.7234 36 24.5408C36 21.3582 34.7357 18.3059 32.4853 16.0555C30.2348 13.8051 27.1826 12.5408 24 12.5408ZM23 19.5408V24.9548L26.293 28.2478L27.707 26.8338L25 24.1268V19.5408H23Z" fill="white"/>
</g>
<defs>
<clipPath id="clip0_245_122">
<rect width="24" height="24" fill="white" transform="translate(12 12.5408)"/>
</clipPath>
</defs>
</svg>
