<svg width="48" height="49" viewBox="0 0 48 49" fill="none" xmlns="http://www.w3.org/2000/svg">
<path d="M24 0.540771C37.2548 0.540771 48 11.2859 48 24.5408C48 37.7956 37.2548 48.5408 24 48.5408C10.7452 48.5408 0 37.7956 0 24.5408C0 11.2859 10.7452 0.540771 24 0.540771Z" fill="#171749"/>
<path d="M24 0.540771C37.2548 0.540771 48 11.2859 48 24.5408C48 37.7956 37.2548 48.5408 24 48.5408C10.7452 48.5408 0 37.7956 0 24.5408C0 11.2859 10.7452 0.540771 24 0.540771Z" stroke="#E5E7EB"/>
<g clip-path="url(#clip0_245_127)">
<path d="M36.001 25.0408C36.001 27.6108 34.707 29.9738 32.54 31.3608C32.074 31.6578 31.456 31.5228 31.159 31.0578C30.861 30.5928 30.997 29.9748 31.462 29.6768C33.052 28.6588 34.001 26.9268 34.001 25.0408C34.001 22.4268 32.143 20.1578 29.584 19.6468C28.626 19.4558 27.84 18.8458 27.426 17.9738C26.243 15.4808 23.606 14.1408 20.859 14.6448C18.452 15.0848 16.49 17.0838 16.088 19.5068C15.966 20.2418 15.974 20.9758 16.112 21.6878C16.303 22.6768 15.934 23.7348 15.149 24.4488C14.42 25.1118 14.003 26.0558 14.003 27.0398C14.003 28.5208 14.941 29.8478 16.336 30.3408C16.857 30.5248 17.129 31.0958 16.945 31.6168C16.8 32.0268 16.414 32.2838 16.002 32.2838C15.891 32.2838 15.779 32.2648 15.669 32.2258C13.476 31.4498 12.002 29.3658 12.002 27.0388C12.002 25.4928 12.658 24.0088 13.803 22.9688C14.076 22.7208 14.208 22.3758 14.148 22.0678C13.965 21.1208 13.954 20.1488 14.115 19.1778C14.661 15.8898 17.227 13.2768 20.498 12.6778C24.092 12.0218 27.682 13.8468 29.233 17.1168C29.373 17.4118 29.644 17.6188 29.975 17.6858C33.467 18.3828 36.001 21.4758 36.001 25.0398V25.0408ZM29.001 25.5408V34.1338C29.001 35.2438 27.691 36.5408 24.001 36.5408C20.311 36.5408 19.001 35.2448 19.001 34.1338V25.5408C19.001 23.7468 21.01 22.5408 24.001 22.5408C26.992 22.5408 29.001 23.7468 29.001 25.5408ZM27.001 28.0148C26.191 28.3498 25.176 28.5408 24.001 28.5408C22.826 28.5408 21.811 28.3498 21.001 28.0148V29.9498C21.249 30.1498 22.117 30.5408 24.001 30.5408C25.885 30.5408 26.753 30.1498 27.001 29.9498V28.0148ZM21.001 25.5408C21.001 25.8998 22.003 26.5408 24.001 26.5408C25.999 26.5408 27.001 25.8998 27.001 25.5408C27.001 25.1818 25.999 24.5408 24.001 24.5408C22.003 24.5408 21.001 25.1818 21.001 25.5408ZM27.001 33.9518V32.1308C26.25 32.3788 25.276 32.5408 24.001 32.5408C22.726 32.5408 21.752 32.3788 21.001 32.1308V33.9518C21.254 34.1528 22.128 34.5408 24.001 34.5408C25.874 34.5408 26.748 34.1528 27.001 33.9518Z" fill="white"/>
</g>
<defs>
<clipPath id="clip0_245_127">
<rect width="24" height="24" fill="white" transform="translate(12 12.5408)"/>
</clipPath>
</defs>
</svg>
