<svg width="48" height="48" viewBox="0 0 48 48" fill="none" xmlns="http://www.w3.org/2000/svg">
<path d="M24 0C37.2548 0 48 10.7452 48 24C48 37.2548 37.2548 48 24 48C10.7452 48 0 37.2548 0 24C0 10.7452 10.7452 0 24 0Z" fill="#171749"/>
<path d="M24 0C37.2548 0 48 10.7452 48 24C48 37.2548 37.2548 48 24 48C10.7452 48 0 37.2548 0 24C0 10.7452 10.7452 0 24 0Z" stroke="#E5E7EB"/>
<path d="M36 20C36 21.648 35.374 23.339 34.419 24.964C34.145 24.271 33.723 23.629 33.15 23.099C33.674 22.037 34 20.988 34 20C34 17.29 31.939 15 29.5 15C27.265 15 25.992 15.905 25.134 16.694L21.31 20.243C20.957 20.597 20.873 21.192 21.147 21.573C21.326 21.822 21.589 21.972 21.886 21.996C22.181 22.023 22.467 21.915 22.674 21.706L26.847 17.711L28.23 19.155L26.992 20.34L31.739 24.506C32.851 25.482 33.125 27.121 32.376 28.318C31.915 29.054 31.162 29.549 30.311 29.674C30.253 29.682 30.196 29.689 30.138 29.694C30.134 30.209 29.997 30.719 29.716 31.169C29.255 31.905 28.502 32.4 27.651 32.525C27.466 32.551 27.282 32.562 27.098 32.553C27.044 32.935 26.914 33.307 26.703 33.644C26.242 34.38 25.489 34.874 24.638 34.999C24.495 35.02 24.352 35.03 24.211 35.03C23.504 35.03 22.818 34.775 22.28 34.302L19.176 31.518C15.901 28.56 12 24.161 12 20C12 16.14 14.916 13 18.5 13C20.103 13 21.333 13.376 22.298 13.869L20.699 15.353C20.089 15.139 19.369 15 18.5 15C16.061 15 14 17.29 14 20C14 22.674 16.313 26.237 20.515 30.034L23.609 32.808C23.806 32.981 24.079 33.061 24.349 33.022C24.623 32.982 24.858 32.827 25.009 32.584C25.239 32.215 25.125 31.667 24.748 31.337L21.541 28.288L22.917 26.836L26.639 30.35C26.818 30.506 27.095 30.588 27.361 30.546C27.635 30.506 27.87 30.35 28.021 30.108C28.251 29.739 28.137 29.191 27.76 28.86L24.2 25.637L25.535 24.149L29.277 27.479C29.477 27.655 29.751 27.737 30.02 27.695C30.294 27.655 30.529 27.499 30.68 27.257C30.91 26.888 30.796 26.34 30.419 26.009L25.541 21.728L24.071 23.135C23.52 23.687 22.759 23.999 21.967 23.999C20.921 23.999 20.042 23.463 19.522 22.741C18.677 21.567 18.848 19.874 19.92 18.802L23.775 15.224C24.817 14.267 26.539 12.999 29.498 12.999C33.082 12.999 35.998 16.139 35.998 19.999L36 20Z" fill="#FF6701"/>
</svg>
