<svg width="48" height="49" viewBox="0 0 48 49" fill="none" xmlns="http://www.w3.org/2000/svg">
<path d="M24 0.540771C37.2548 0.540771 48 11.2859 48 24.5408C48 37.7956 37.2548 48.5408 24 48.5408C10.7452 48.5408 0 37.7956 0 24.5408C0 11.2859 10.7452 0.540771 24 0.540771Z" fill="#171749"/>
<path d="M24 0.540771C37.2548 0.540771 48 11.2859 48 24.5408C48 37.7956 37.2548 48.5408 24 48.5408C10.7452 48.5408 0 37.7956 0 24.5408C0 11.2859 10.7452 0.540771 24 0.540771Z" stroke="#E5E7EB"/>
<g clip-path="url(#clip0_245_111)">
<path d="M33.9104 25.0408C33.8034 24.8558 33.6654 24.6968 33.5254 24.5408C33.6664 24.3858 33.8034 24.2258 33.9104 24.0408L34.8734 22.3728C35.4064 21.4478 35.4064 20.2988 34.8734 19.3738L33.9104 17.7068C33.3754 16.7818 32.3804 16.2068 31.3124 16.2068H29.3874C29.1734 16.2068 28.9664 16.2458 28.7614 16.2898C28.6974 16.0908 28.6274 15.8918 28.5214 15.7068L27.5594 14.0398C27.0244 13.1158 26.0294 12.5408 24.9614 12.5408H23.0374C21.9694 12.5408 20.9744 13.1158 20.4384 14.0408C19.9024 14.9658 19.4764 15.7078 19.4764 15.7078C19.3694 15.8928 19.3004 16.0918 19.2364 16.2908C19.0314 16.2468 18.8244 16.2078 18.6104 16.2078H16.6854C15.6184 16.2078 14.6234 16.7828 14.0874 17.7078L13.1244 19.3758C12.5914 20.2998 12.5914 21.4488 13.1244 22.3758L14.0874 24.0428C14.1944 24.2278 14.3324 24.3868 14.4724 24.5428C14.3314 24.6978 14.1944 24.8578 14.0874 25.0428L13.1244 26.7108C12.5914 27.6358 12.5914 28.7848 13.1244 29.7098L14.0874 31.3768C14.6224 32.3018 15.6174 32.8768 16.6854 32.8768H18.6104C18.8244 32.8768 19.0314 32.8378 19.2364 32.7938C19.3004 32.9928 19.3704 33.1918 19.4764 33.3768L20.4384 35.0438C20.9734 35.9688 21.9684 36.5438 23.0374 36.5438H24.9614C26.0294 36.5438 27.0244 35.9688 27.5604 35.0438L28.5224 33.3768C28.6294 33.1918 28.6984 32.9928 28.7624 32.7938C28.9674 32.8378 29.1744 32.8768 29.3884 32.8768H31.3134C32.3804 32.8768 33.3754 32.3018 33.9114 31.3768L34.8744 29.7088C35.4074 28.7848 35.4074 27.6358 34.8744 26.7088L33.9114 25.0418L33.9104 25.0408ZM31.3124 18.2078C31.6674 18.2078 32.0004 18.3998 32.1774 18.7078L33.1404 20.3738C33.3184 20.6828 33.3184 21.0668 33.1404 21.3738L32.1774 23.0408C31.9994 23.3498 31.6674 23.5408 31.3124 23.5408H29.3874C29.0314 23.5408 28.6994 23.3488 28.5214 23.0408L27.5594 21.3738C27.3804 21.0648 27.3804 20.6828 27.5594 20.3738L28.5214 18.7068C28.6994 18.3978 29.0314 18.2068 29.3874 18.2068L31.3124 18.2078ZM22.1714 26.7078L21.2094 25.0408C21.0304 24.7328 21.0304 24.3498 21.2094 24.0408L22.1714 22.3738C22.3494 22.0648 22.6814 21.8738 23.0374 21.8738H24.9614C25.3174 21.8738 25.6494 22.0648 25.8274 22.3738L26.7894 24.0408C26.9684 24.3488 26.9684 24.7318 26.7894 25.0408L25.8274 26.7078C25.6494 27.0168 25.3174 27.2078 24.9614 27.2078H23.0374C22.6814 27.2078 22.3494 27.0168 22.1714 26.7078ZM21.2094 16.7078L22.1714 15.0418C22.3494 14.7328 22.6814 14.5418 23.0374 14.5418H24.9614C25.3174 14.5418 25.6494 14.7338 25.8274 15.0418L26.7894 16.7088C26.9684 17.0178 26.9684 17.3998 26.7894 17.7088L25.8274 19.3758C25.6494 19.6848 25.3174 19.8758 24.9614 19.8758H23.0374C22.6814 19.8758 22.3494 19.6838 22.1714 19.3758L21.2094 17.7088C21.0304 17.4008 21.0304 17.0178 21.2094 16.7088V16.7078ZM14.8574 20.3738L15.8204 18.7068C15.9984 18.3978 16.3304 18.2068 16.6854 18.2068H18.6104C18.9664 18.2068 19.2984 18.3988 19.4764 18.7068L20.4384 20.3738C20.6174 20.6818 20.6174 21.0648 20.4384 21.3738L19.4764 23.0398C19.2984 23.3488 18.9664 23.5398 18.6104 23.5398H16.6854C16.3304 23.5398 15.9974 23.3478 15.8204 23.0398L14.8574 21.3748C14.6794 21.0658 14.6794 20.6818 14.8574 20.3738ZM16.6854 30.8738C16.3304 30.8738 15.9974 30.6818 15.8204 30.3738L14.8574 28.7078C14.6794 28.3988 14.6794 28.0148 14.8574 27.7078L15.8204 26.0408C15.9984 25.7318 16.3304 25.5408 16.6854 25.5408H18.6104C18.9664 25.5408 19.2984 25.7328 19.4764 26.0408L20.4384 27.7078C20.6174 28.0168 20.6174 28.3988 20.4384 28.7078L19.4764 30.3748C19.2984 30.6838 18.9664 30.8748 18.6104 30.8748L16.6854 30.8738ZM26.7894 32.3738L25.8274 34.0398C25.6494 34.3488 25.3174 34.5398 24.9614 34.5398H23.0374C22.6814 34.5398 22.3494 34.3478 22.1714 34.0398L21.2094 32.3728C21.0304 32.0638 21.0304 31.6818 21.2094 31.3728L22.1714 29.7058C22.3494 29.3968 22.6814 29.2058 23.0374 29.2058H24.9614C25.3174 29.2058 25.6494 29.3978 25.8274 29.7058L26.7894 31.3728C26.9684 31.6808 26.9684 32.0648 26.7894 32.3738ZM33.1414 28.7068L32.1784 30.3738C32.0004 30.6828 31.6684 30.8738 31.3134 30.8738H29.3884C29.0324 30.8738 28.7004 30.6818 28.5224 30.3738L27.5604 28.7068C27.3814 28.3988 27.3814 28.0158 27.5604 27.7068L28.5224 26.0408C28.7004 25.7318 29.0324 25.5408 29.3884 25.5408H31.3134C31.6684 25.5408 32.0014 25.7328 32.1784 26.0408L33.1414 27.7058C33.3194 28.0148 33.3194 28.3988 33.1414 28.7068Z" fill="white"/>
</g>
<defs>
<clipPath id="clip0_245_111">
<rect width="24" height="24" fill="white" transform="translate(12 12.5408)"/>
</clipPath>
</defs>
</svg>
