<svg width="48" height="48" viewBox="0 0 48 48" fill="none" xmlns="http://www.w3.org/2000/svg">
<path d="M24 0C37.2548 0 48 10.7452 48 24C48 37.2548 37.2548 48 24 48C10.7452 48 0 37.2548 0 24C0 10.7452 10.7452 0 24 0Z" fill="#171749"/>
<path d="M24 0C37.2548 0 48 10.7452 48 24C48 37.2548 37.2548 48 24 48C10.7452 48 0 37.2548 0 24C0 10.7452 10.7452 0 24 0Z" stroke="#E5E7EB"/>
<g clip-path="url(#clip0_200_1259)">
<path d="M26.831 29C26.575 29 26.319 28.902 26.124 28.707C25.733 28.316 25.733 27.684 26.124 27.293L28.707 24.71C28.895 24.521 29 24.27 29 24.002C29 23.734 28.896 23.484 28.707 23.295L26.124 20.711C25.733 20.32 25.733 19.687 26.124 19.297C26.515 18.906 27.147 18.906 27.538 19.297L30.121 21.88C30.687 22.446 31 23.2 31 24.001C31 24.802 30.688 25.556 30.121 26.123L27.538 28.706C27.343 28.901 27.087 29 26.831 29ZM21.876 28.702C22.267 28.311 22.267 27.679 21.876 27.288L19.293 24.705C19.104 24.516 19 24.265 19 23.997C19 23.729 19.104 23.479 19.293 23.29L21.876 20.707C22.267 20.316 22.267 19.684 21.876 19.293C21.485 18.902 20.853 18.902 20.462 19.293L17.879 21.876C17.312 22.443 17 23.196 17 23.998C17 24.8 17.312 25.553 17.879 26.12L20.462 28.703C20.657 28.898 20.913 28.996 21.169 28.996C21.425 28.996 21.681 28.897 21.876 28.702ZM36 31V17C36 14.243 33.757 12 31 12H17C14.243 12 12 14.243 12 17V31C12 33.757 14.243 36 17 36H31C33.757 36 36 33.757 36 31ZM31 14C32.654 14 34 15.346 34 17V31C34 32.654 32.654 34 31 34H17C15.346 34 14 32.654 14 31V17C14 15.346 15.346 14 17 14H31Z" fill="#FF6701"/>
</g>
<defs>
<clipPath id="clip0_200_1259">
<rect width="24" height="24" fill="white" transform="translate(12 12)"/>
</clipPath>
</defs>
</svg>
