<svg width="48" height="48" viewBox="0 0 48 48" fill="none" xmlns="http://www.w3.org/2000/svg">
<path d="M24 0C37.2548 0 48 10.7452 48 24C48 37.2548 37.2548 48 24 48C10.7452 48 0 37.2548 0 24C0 10.7452 10.7452 0 24 0Z" fill="#171749"/>
<path d="M24 0C37.2548 0 48 10.7452 48 24C48 37.2548 37.2548 48 24 48C10.7452 48 0 37.2548 0 24C0 10.7452 10.7452 0 24 0Z" stroke="#E5E7EB"/>
<g clip-path="url(#clip0_200_1271)">
<path d="M35 34H17C16.2044 34 15.4413 33.6839 14.8787 33.1213C14.3161 32.5587 14 31.7956 14 31V13C14 12.7348 13.8946 12.4804 13.7071 12.2929C13.5196 12.1054 13.2652 12 13 12C12.7348 12 12.4804 12.1054 12.2929 12.2929C12.1054 12.4804 12 12.7348 12 13V31C12.0016 32.3256 12.5289 33.5964 13.4662 34.5338C14.4036 35.4711 15.6744 35.9984 17 36H35C35.2652 36 35.5196 35.8946 35.7071 35.7071C35.8946 35.5196 36 35.2652 36 35C36 34.7348 35.8946 34.4804 35.7071 34.2929C35.5196 34.1054 35.2652 34 35 34Z" fill="#FF6701"/>
<path d="M18 32C18.2652 32 18.5196 31.8946 18.7071 31.7071C18.8946 31.5196 19 31.2652 19 31V24C19 23.7348 18.8946 23.4804 18.7071 23.2929C18.5196 23.1054 18.2652 23 18 23C17.7348 23 17.4804 23.1054 17.2929 23.2929C17.1054 23.4804 17 23.7348 17 24V31C17 31.2652 17.1054 31.5196 17.2929 31.7071C17.4804 31.8946 17.7348 32 18 32Z" fill="#FF6701"/>
<path d="M22 22V31C22 31.2652 22.1054 31.5196 22.2929 31.7071C22.4804 31.8946 22.7348 32 23 32C23.2652 32 23.5196 31.8946 23.7071 31.7071C23.8946 31.5196 24 31.2652 24 31V22C24 21.7348 23.8946 21.4804 23.7071 21.2929C23.5196 21.1054 23.2652 21 23 21C22.7348 21 22.4804 21.1054 22.2929 21.2929C22.1054 21.4804 22 21.7348 22 22Z" fill="#FF6701"/>
<path d="M27 25V31C27 31.2652 27.1054 31.5196 27.2929 31.7071C27.4804 31.8946 27.7348 32 28 32C28.2652 32 28.5196 31.8946 28.7071 31.7071C28.8946 31.5196 29 31.2652 29 31V25C29 24.7348 28.8946 24.4804 28.7071 24.2929C28.5196 24.1054 28.2652 24 28 24C27.7348 24 27.4804 24.1054 27.2929 24.2929C27.1054 24.4804 27 24.7348 27 25Z" fill="#FF6701"/>
<path d="M32 21V31C32 31.2652 32.1054 31.5196 32.2929 31.7071C32.4804 31.8946 32.7348 32 33 32C33.2652 32 33.5196 31.8946 33.7071 31.7071C33.8946 31.5196 34 31.2652 34 31V21C34 20.7348 33.8946 20.4804 33.7071 20.2929C33.5196 20.1054 33.2652 20 33 20C32.7348 20 32.4804 20.1054 32.2929 20.2929C32.1054 20.4804 32 20.7348 32 21Z" fill="#FF6701"/>
<path d="M17.9998 20.9999C18.265 20.9999 18.5193 20.8945 18.7068 20.7069L22.2928 17.1209C22.4834 16.9393 22.7365 16.8381 22.9998 16.8381C23.263 16.8381 23.5162 16.9393 23.7068 17.1209L25.8788 19.2929C26.4414 19.8553 27.2043 20.1713 27.9998 20.1713C28.7953 20.1713 29.5582 19.8553 30.1208 19.2929L35.7068 13.7069C35.8889 13.5183 35.9897 13.2657 35.9875 13.0035C35.9852 12.7413 35.88 12.4905 35.6946 12.3051C35.5092 12.1197 35.2584 12.0145 34.9962 12.0122C34.734 12.01 34.4814 12.1108 34.2928 12.2929L28.7068 17.8779C28.5193 18.0654 28.265 18.1707 27.9998 18.1707C27.7346 18.1707 27.4803 18.0654 27.2928 17.8779L25.1208 15.7069C24.5582 15.1445 23.7953 14.8286 22.9998 14.8286C22.2043 14.8286 21.4414 15.1445 20.8788 15.7069L17.2928 19.2929C17.153 19.4328 17.0578 19.6109 17.0192 19.8049C16.9806 19.9988 17.0004 20.1999 17.0761 20.3826C17.1518 20.5653 17.2799 20.7214 17.4443 20.8313C17.6087 20.9412 17.802 20.9999 17.9998 20.9999Z" fill="#FF6701"/>
</g>
<defs>
<clipPath id="clip0_200_1271">
<rect width="24" height="24" fill="white" transform="translate(12 12)"/>
</clipPath>
</defs>
</svg>
