<svg width="48" height="48" viewBox="0 0 48 48" fill="none" xmlns="http://www.w3.org/2000/svg">
<path d="M24 0C37.2548 0 48 10.7452 48 24C48 37.2548 37.2548 48 24 48C10.7452 48 0 37.2548 0 24C0 10.7452 10.7452 0 24 0Z" fill="#171749"/>
<path d="M24 0C37.2548 0 48 10.7452 48 24C48 37.2548 37.2548 48 24 48C10.7452 48 0 37.2548 0 24C0 10.7452 10.7452 0 24 0Z" stroke="#E5E7EB"/>
<g clip-path="url(#clip0_492_369)">
<path d="M31.9993 20C29.1333 20 26.7793 22.815 26.3793 23.322C25.8173 23.132 25.1953 23 24.4993 23C23.1543 23 21.9133 23.477 20.8813 24.079C21.0813 22.782 21.0523 21.581 21.0213 20.59C21.0013 19.98 20.9833 19.393 21.0313 18.95L24.0193 18V16.966L25.9993 16.178V15.499C25.9993 13.778 24.5033 11.999 21.9993 11.999C20.1743 11.999 18.7763 13.186 18.6763 13.277C11.8943 18.496 11.9623 25.701 11.9953 29.164L11.9993 30.102C12.1613 30.333 16.0503 36.024 23.9993 36.024C31.9483 36.024 35.8383 32.48 35.9993 32.341V20.744C35.8843 20.68 34.2873 20 31.9993 20ZM33.9993 31.381C32.9673 32.092 29.6443 34.024 23.9993 34.024C18.0853 34.024 14.7803 30.419 13.9973 29.446C13.9653 26.066 13.9023 19.474 19.9433 14.825C19.9523 14.817 20.9103 14.001 21.9993 14.001C22.9973 14.001 23.5663 14.433 23.8263 14.892L22.0183 15.611V16.54L19.4013 17.372L19.2363 17.841C18.9573 18.629 18.9873 19.569 19.0213 20.656C19.0723 22.281 18.9993 24.502 17.9683 26.504L19.5033 27.786C19.5263 27.759 21.8723 25.002 24.4983 25.002C26.5633 25.002 27.8793 26.685 27.8923 26.702L29.4893 25.498C29.4523 25.448 28.9963 24.861 28.1943 24.269C28.9373 23.422 30.4973 22.002 31.9993 22.002C32.9343 22.002 33.5913 22.111 33.9993 22.211V31.383V31.381Z" fill="#FF6701"/>
</g>
<defs>
<clipPath id="clip0_492_369">
<rect width="24" height="24" fill="white" transform="translate(12 12)"/>
</clipPath>
</defs>
</svg>
