<svg width="48" height="48" viewBox="0 0 48 48" fill="none" xmlns="http://www.w3.org/2000/svg">
<path d="M24 0C37.2548 0 48 10.7452 48 24C48 37.2548 37.2548 48 24 48C10.7452 48 0 37.2548 0 24C0 10.7452 10.7452 0 24 0Z" fill="#171749"/>
<path d="M24 0C37.2548 0 48 10.7452 48 24C48 37.2548 37.2548 48 24 48C10.7452 48 0 37.2548 0 24C0 10.7452 10.7452 0 24 0Z" stroke="#E5E7EB"/>
<path d="M26.881 24H27C29.206 24 31 22.206 31 20V16C31 13.794 29.206 12 27 12H21C18.795 12 17 13.794 17 16V20C17 22.206 18.794 24 21 24H21.154L22.989 25.617C23.279 25.873 23.641 26.001 24.003 26.001C24.362 26.001 24.72 25.875 25.002 25.625L26.881 24ZM22.193 22.25C22.01 22.089 21.776 22 21.532 22H21C19.897 22 19 21.103 19 20V16C19 14.897 19.897 14 21 14H27C28.103 14 29 14.897 29 16V20C29 21.103 28.103 22 27 22H26.508C26.268 22 26.036 22.087 25.854 22.243L24.002 23.845L22.193 22.25ZM27.234 17.68L24.702 20.414C24.311 20.801 23.807 20.992 23.308 20.992C22.824 20.992 22.344 20.811 21.976 20.452L20.774 19.188C20.394 18.788 20.41 18.155 20.81 17.775C21.21 17.394 21.843 17.411 22.224 17.811L23.319 18.963L25.765 16.319C26.14 15.913 26.773 15.889 27.178 16.265C27.583 16.64 27.608 17.273 27.233 17.678L27.234 17.68ZM18 26C15.239 26 13 28.239 13 31C13 33.761 15.239 36 18 36C20.761 36 23 33.761 23 31C23 28.239 20.761 26 18 26ZM20.041 33.778C19.809 33.778 19.602 33.63 19.527 33.41L19.273 32.667H16.729L16.475 33.41C16.4 33.63 16.193 33.778 15.96 33.778C15.588 33.778 15.326 33.413 15.445 33.061L16.799 29.027C17.092 28.36 17.492 28.223 18.001 28.223C18.51 28.223 18.91 28.36 19.195 29.007L20.557 33.062C20.675 33.414 20.413 33.779 20.042 33.779L20.041 33.778ZM18.16 29.416L18.892 31.555H17.108L17.833 29.434C17.856 29.387 17.945 29.332 18 29.332C18.057 29.332 18.142 29.38 18.16 29.416ZM30.556 30.444H28.889V29.888C28.889 29.581 29.138 29.332 29.445 29.332H30.531C30.821 29.332 31.08 29.543 31.109 29.831C31.142 30.162 30.881 30.444 30.556 30.444ZM31.664 32.167C31.635 32.455 31.377 32.666 31.087 32.666H29.444C29.137 32.666 28.889 32.417 28.889 32.11V31.554H31.111C31.436 31.554 31.697 31.836 31.664 32.167ZM30 26C27.239 26 25 28.239 25 31C25 33.761 27.239 36 30 36C32.761 36 35 33.761 35 31C35 28.239 32.761 26 30 26ZM31.067 33.778H29.555C28.573 33.778 27.777 32.982 27.777 32V30C27.777 29.018 28.573 28.222 29.66 28.222H30.508C31.419 28.222 32.197 28.933 32.221 29.844C32.229 30.158 32.15 30.453 32.007 30.707C32.505 31.026 32.824 31.603 32.772 32.248C32.702 33.121 31.942 33.778 31.067 33.778Z" fill="white"/>
</svg>
