<svg width="48" height="49" viewBox="0 0 48 49" fill="none" xmlns="http://www.w3.org/2000/svg">
<path d="M24 0.540771C37.2548 0.540771 48 11.2859 48 24.5408C48 37.7956 37.2548 48.5408 24 48.5408C10.7452 48.5408 0 37.7956 0 24.5408C0 11.2859 10.7452 0.540771 24 0.540771Z" fill="#171749"/>
<path d="M24 0.540771C37.2548 0.540771 48 11.2859 48 24.5408C48 37.7956 37.2548 48.5408 24 48.5408C10.7452 48.5408 0 37.7956 0 24.5408C0 11.2859 10.7452 0.540771 24 0.540771Z" stroke="#E5E7EB"/>
<g clip-path="url(#clip0_245_116)">
<path d="M36 34.5408C36 35.6458 35.105 36.5408 34 36.5408C33.262 36.5408 32.624 36.1358 32.277 35.5408H31C29.346 35.5408 28 34.1948 28 32.5408V31.5408C28 30.9878 28.448 30.5408 29 30.5408C29.552 30.5408 30 30.9878 30 31.5408V32.5408C30 33.0928 30.449 33.5408 31 33.5408H32.277C32.623 32.9458 33.261 32.5408 34 32.5408C35.105 32.5408 36 33.4358 36 34.5408ZM19 30.5408C18.448 30.5408 18 30.9878 18 31.5408V32.5408C18 33.0928 17.551 33.5408 17 33.5408H15.723C15.377 32.9458 14.739 32.5408 14 32.5408C12.895 32.5408 12 33.4358 12 34.5408C12 35.6458 12.895 36.5408 14 36.5408C14.738 36.5408 15.376 36.1358 15.723 35.5408H17C18.654 35.5408 20 34.1948 20 32.5408V31.5408C20 30.9878 19.552 30.5408 19 30.5408ZM25 29.4198V32.8178C25.595 33.1638 26 33.8018 26 34.5408C26 35.6458 25.105 36.5408 24 36.5408C22.895 36.5408 22 35.6458 22 34.5408C22 33.8028 22.405 33.1648 23 32.8178V29.4198C22.104 29.2148 21.315 28.7418 20.711 28.0888L19.734 28.6518C19.264 28.9258 18.645 28.7678 18.368 28.2848C18.093 27.8058 18.257 27.1948 18.736 26.9198L19.719 26.3538C19.59 25.9358 19.501 25.5008 19.501 25.0408C19.501 24.5808 19.591 24.1458 19.719 23.7278L18.736 23.1608C18.257 22.8858 18.093 22.2738 18.369 21.7948C18.645 21.3158 19.254 21.1508 19.735 21.4278L20.712 21.9908C21.317 21.3388 22.105 20.8648 23.001 20.6608V19.5398C23.001 18.9878 23.449 18.5398 24.001 18.5398C24.553 18.5398 25.001 18.9878 25.001 19.5398V20.6608C25.897 20.8658 26.686 21.3388 27.29 21.9908L28.267 21.4278C28.747 21.1518 29.357 21.3168 29.633 21.7948C29.909 22.2738 29.745 22.8848 29.266 23.1608L28.283 23.7278C28.412 24.1458 28.501 24.5808 28.501 25.0408C28.501 25.5008 28.412 25.9358 28.283 26.3538L29.266 26.9198C29.745 27.1948 29.909 27.8068 29.634 28.2848C29.357 28.7678 28.738 28.9258 28.268 28.6518L27.291 28.0888C26.686 28.7408 25.898 29.2148 25.002 29.4198H25ZM24 27.5408C25.378 27.5408 26.5 26.4198 26.5 25.0408C26.5 23.6618 25.378 22.5408 24 22.5408C22.622 22.5408 21.5 23.6628 21.5 25.0408C21.5 26.4188 22.622 27.5408 24 27.5408ZM14.5 31.3708C14.658 31.4628 14.83 31.5058 15 31.5058C15.345 31.5058 15.681 31.3268 15.867 31.0068C16.143 30.5278 15.98 29.9168 15.502 29.6408C14.577 29.1058 14.002 28.1098 14.002 27.0408C14.002 26.0568 14.42 25.1128 15.148 24.4508C15.934 23.7358 16.303 22.6778 16.111 21.6888C15.973 20.9768 15.965 20.2428 16.087 19.5078C16.49 17.0858 18.452 15.0868 20.858 14.6458C23.603 14.1428 26.243 15.4808 27.425 17.9748C27.839 18.8468 28.625 19.4568 29.583 19.6478C32.143 20.1588 34 22.4268 34 25.0418C34 26.4618 33.393 27.8198 32.333 28.7688C31.921 29.1368 31.887 29.7688 32.255 30.1808C32.623 30.5918 33.255 30.6268 33.667 30.2588C35.149 28.9318 36 27.0298 36 25.0418C36 21.4768 33.466 18.3838 29.974 17.6878C29.642 17.6218 29.371 17.4138 29.232 17.1188C27.681 13.8468 24.089 12.0208 20.497 12.6778C17.226 13.2768 14.66 15.8898 14.113 19.1798C13.951 20.1498 13.963 21.1218 14.146 22.0698C14.206 22.3778 14.074 22.7238 13.801 22.9708C12.656 24.0118 12 25.4948 12 27.0408C12 28.8198 12.958 30.4798 14.5 31.3708Z" fill="#FF6701"/>
</g>
<defs>
<clipPath id="clip0_245_116">
<rect width="24" height="24" fill="white" transform="translate(12 12.5408)"/>
</clipPath>
</defs>
</svg>
