<svg width="48" height="49" viewBox="0 0 48 49" fill="none" xmlns="http://www.w3.org/2000/svg">
<path d="M24 0.540771C37.2548 0.540771 48 11.2859 48 24.5408C48 37.7956 37.2548 48.5408 24 48.5408C10.7452 48.5408 0 37.7956 0 24.5408C0 11.2859 10.7452 0.540771 24 0.540771Z" fill="#171749"/>
<path d="M24 0.540771C37.2548 0.540771 48 11.2859 48 24.5408C48 37.7956 37.2548 48.5408 24 48.5408C10.7452 48.5408 0 37.7956 0 24.5408C0 11.2859 10.7452 0.540771 24 0.540771Z" stroke="#E5E7EB"/>
<path d="M31 13.5408H17C14.243 13.5408 12 15.7838 12 18.5408V30.5408C12 33.2978 14.243 35.5408 17 35.5408H31C33.757 35.5408 36 33.2978 36 30.5408V18.5408C36 15.7838 33.757 13.5408 31 13.5408ZM17 15.5408H31C32.654 15.5408 34 16.8868 34 18.5408V20.5408H14V18.5408C14 16.8868 15.346 15.5408 17 15.5408ZM31 33.5408H17C15.346 33.5408 14 32.1948 14 30.5408V22.5408H34V30.5408C34 32.1948 32.654 33.5408 31 33.5408ZM15 18.0408C15 17.2128 15.672 16.5408 16.5 16.5408C17.328 16.5408 18 17.2128 18 18.0408C18 18.8688 17.328 19.5408 16.5 19.5408C15.672 19.5408 15 18.8688 15 18.0408ZM19 18.0408C19 17.2128 19.672 16.5408 20.5 16.5408C21.328 16.5408 22 17.2128 22 18.0408C22 18.8688 21.328 19.5408 20.5 19.5408C19.672 19.5408 19 18.8688 19 18.0408ZM21 28.5408V30.5408C21 31.0938 20.552 31.5408 20 31.5408C19.448 31.5408 19 31.0938 19 30.5408V28.5408C19 27.9878 19.448 27.5408 20 27.5408C20.552 27.5408 21 27.9878 21 28.5408ZM25 25.5408V30.5408C25 31.0938 24.552 31.5408 24 31.5408C23.448 31.5408 23 31.0938 23 30.5408V25.5408C23 24.9878 23.448 24.5408 24 24.5408C24.552 24.5408 25 24.9878 25 25.5408ZM29 27.5408V30.5408C29 31.0938 28.552 31.5408 28 31.5408C27.448 31.5408 27 31.0938 27 30.5408V27.5408C27 26.9878 27.448 26.5408 28 26.5408C28.552 26.5408 29 26.9878 29 27.5408Z" fill="#FF6701"/>
</svg>
